<mxfile host="app.diagrams.net" modified="2024-03-19T10:48:43.161Z" agent="Mozilla/5.0 (Windows NT 10.0; Win64; x64) AppleWebKit/537.36 (KHTML, like Gecko) Chrome/124.0.0.0 Safari/537.36 Edg/124.0.0.0" etag="S5a8Luq8jf6jMRGobaQY" version="22.1.17" type="github">
  <diagram name="第 1 页" id="5H21A9VdFruYtH3lKmsI">
    <mxGraphModel dx="1295" dy="686" grid="1" gridSize="10" guides="1" tooltips="1" connect="1" arrows="1" fold="1" page="1" pageScale="1" pageWidth="827" pageHeight="1169" math="0" shadow="0">
      <root>
        <mxCell id="0" />
        <mxCell id="1" parent="0" />
        <mxCell id="p7L7XSijqibg-nMQ3p3t-8" value="" style="edgeStyle=orthogonalEdgeStyle;rounded=0;orthogonalLoop=1;jettySize=auto;html=1;" edge="1" parent="1" source="p7L7XSijqibg-nMQ3p3t-6" target="p7L7XSijqibg-nMQ3p3t-7">
          <mxGeometry relative="1" as="geometry" />
        </mxCell>
        <mxCell id="p7L7XSijqibg-nMQ3p3t-6" value="开始" style="shape=process;whiteSpace=wrap;html=1;backgroundOutline=1;" vertex="1" parent="1">
          <mxGeometry x="40" y="130" width="120" height="60" as="geometry" />
        </mxCell>
        <mxCell id="p7L7XSijqibg-nMQ3p3t-10" value="" style="edgeStyle=orthogonalEdgeStyle;rounded=0;orthogonalLoop=1;jettySize=auto;html=1;" edge="1" parent="1" source="p7L7XSijqibg-nMQ3p3t-7" target="p7L7XSijqibg-nMQ3p3t-9">
          <mxGeometry relative="1" as="geometry" />
        </mxCell>
        <mxCell id="p7L7XSijqibg-nMQ3p3t-7" value="Crawler4j爬取网页数据" style="whiteSpace=wrap;html=1;" vertex="1" parent="1">
          <mxGeometry x="240" y="130" width="130" height="60" as="geometry" />
        </mxCell>
        <mxCell id="p7L7XSijqibg-nMQ3p3t-11" style="edgeStyle=orthogonalEdgeStyle;rounded=0;orthogonalLoop=1;jettySize=auto;html=1;exitX=0.5;exitY=0;exitDx=0;exitDy=0;entryX=0.5;entryY=0;entryDx=0;entryDy=0;" edge="1" parent="1" source="p7L7XSijqibg-nMQ3p3t-9" target="p7L7XSijqibg-nMQ3p3t-7">
          <mxGeometry relative="1" as="geometry">
            <Array as="points">
              <mxPoint x="543" y="80" />
              <mxPoint x="305" y="80" />
            </Array>
          </mxGeometry>
        </mxCell>
        <mxCell id="p7L7XSijqibg-nMQ3p3t-12" value="否" style="edgeLabel;html=1;align=center;verticalAlign=middle;resizable=0;points=[];" vertex="1" connectable="0" parent="p7L7XSijqibg-nMQ3p3t-11">
          <mxGeometry x="-0.0626" y="2" relative="1" as="geometry">
            <mxPoint as="offset" />
          </mxGeometry>
        </mxCell>
        <mxCell id="p7L7XSijqibg-nMQ3p3t-14" value="" style="edgeStyle=orthogonalEdgeStyle;rounded=0;orthogonalLoop=1;jettySize=auto;html=1;" edge="1" parent="1" source="p7L7XSijqibg-nMQ3p3t-9" target="p7L7XSijqibg-nMQ3p3t-13">
          <mxGeometry relative="1" as="geometry" />
        </mxCell>
        <mxCell id="p7L7XSijqibg-nMQ3p3t-9" value="爬取任务是否完成？" style="rhombus;whiteSpace=wrap;html=1;" vertex="1" parent="1">
          <mxGeometry x="475" y="120" width="135" height="80" as="geometry" />
        </mxCell>
        <mxCell id="p7L7XSijqibg-nMQ3p3t-19" value="" style="edgeStyle=orthogonalEdgeStyle;rounded=0;orthogonalLoop=1;jettySize=auto;html=1;" edge="1" parent="1" source="p7L7XSijqibg-nMQ3p3t-13" target="p7L7XSijqibg-nMQ3p3t-18">
          <mxGeometry relative="1" as="geometry">
            <Array as="points">
              <mxPoint x="100" y="240" />
            </Array>
          </mxGeometry>
        </mxCell>
        <mxCell id="p7L7XSijqibg-nMQ3p3t-13" value="" style="whiteSpace=wrap;html=1;" vertex="1" parent="1">
          <mxGeometry x="697.5" y="60" width="120" height="200" as="geometry" />
        </mxCell>
        <mxCell id="p7L7XSijqibg-nMQ3p3t-15" value="网页去噪" style="rounded=1;whiteSpace=wrap;html=1;" vertex="1" parent="1">
          <mxGeometry x="712.5" y="70" width="90" height="40" as="geometry" />
        </mxCell>
        <mxCell id="p7L7XSijqibg-nMQ3p3t-16" value="内容提取" style="rounded=1;whiteSpace=wrap;html=1;" vertex="1" parent="1">
          <mxGeometry x="712.5" y="140" width="90" height="40" as="geometry" />
        </mxCell>
        <mxCell id="p7L7XSijqibg-nMQ3p3t-17" value="中文分词" style="rounded=1;whiteSpace=wrap;html=1;" vertex="1" parent="1">
          <mxGeometry x="712.5" y="210" width="90" height="40" as="geometry" />
        </mxCell>
        <mxCell id="p7L7XSijqibg-nMQ3p3t-27" value="" style="edgeStyle=orthogonalEdgeStyle;rounded=0;orthogonalLoop=1;jettySize=auto;html=1;entryX=0;entryY=0.5;entryDx=0;entryDy=0;" edge="1" parent="1" source="p7L7XSijqibg-nMQ3p3t-18" target="p7L7XSijqibg-nMQ3p3t-25">
          <mxGeometry relative="1" as="geometry">
            <mxPoint x="240" y="350" as="targetPoint" />
          </mxGeometry>
        </mxCell>
        <mxCell id="p7L7XSijqibg-nMQ3p3t-18" value="" style="whiteSpace=wrap;html=1;" vertex="1" parent="1">
          <mxGeometry x="35" y="280" width="130" height="140" as="geometry" />
        </mxCell>
        <mxCell id="p7L7XSijqibg-nMQ3p3t-21" value="文本聚类" style="rounded=1;whiteSpace=wrap;html=1;" vertex="1" parent="1">
          <mxGeometry x="55" y="320" width="90" height="40" as="geometry" />
        </mxCell>
        <mxCell id="p7L7XSijqibg-nMQ3p3t-22" value="实时话题检测" style="rounded=1;whiteSpace=wrap;html=1;" vertex="1" parent="1">
          <mxGeometry x="55" y="370" width="90" height="40" as="geometry" />
        </mxCell>
        <mxCell id="p7L7XSijqibg-nMQ3p3t-29" value="" style="edgeStyle=orthogonalEdgeStyle;rounded=0;orthogonalLoop=1;jettySize=auto;html=1;entryX=0;entryY=0.5;entryDx=0;entryDy=0;" edge="1" parent="1" source="p7L7XSijqibg-nMQ3p3t-25" target="p7L7XSijqibg-nMQ3p3t-33">
          <mxGeometry relative="1" as="geometry">
            <mxPoint x="463.5" y="350" as="targetPoint" />
            <Array as="points" />
          </mxGeometry>
        </mxCell>
        <mxCell id="p7L7XSijqibg-nMQ3p3t-25" value="话题加速度信息统计" style="shape=image;verticalLabelPosition=bottom;labelBackgroundColor=default;verticalAlign=top;aspect=fixed;imageAspect=0;image=data:image/png,iVBORw0KGgoAAAANSUhEUgAAARYAAADECAYAAABazA7fAAAgAElEQVR4Ae2dh1tV19bu82fce797zvednJz0aDSx964oIqKoiIoKCBYsNEWkCNgLgr3S7AVsqKix94YNe+89dqMm497f2C5DiOhGipS5nmc9e7NZe+01x5zznWO8o8zP0tPXSNyEOBkaGSUhgwZLSPAgGRQULIOCgmRgUJAEBwWb08jAjAEzBv4+BgJtGBERFiZjx4yRxYsWyY7t2+XChQvy2bx582XQoBDx7O4l7VzbS+tWzuLUwlEcHZqLo4ODtHBobk4jAzMGzBjIMQYcxKFpM2nWpIm0cmwpXdw7ybDoGFkwf74cOnhQPps7d64EBQaLR5eu0trZRb/crHFTadqosTRtzNlEmpnTyMCMATMGmjRRIAEXGjdoKHVr1ZZqlSpL9SpVpUHdeuLXu49Mip8o27Zuk8+Sk1MkICBIPDy6SXvXDuLe0V08uniIl6en+Hj3EN8ePtLTnEYGZgyYMeDjIz19fMTby0s8OncRl1atpW7N2lLl50p6du3sISOHj5AN69fLZ0lJyRIYGCQ9eviIj4+vREVFy+TJkyUlJUWWLFkiS5culWXLlpnTyMCMATMGdAwsWLBAZsyYKVFDo6Sze2dp3KCRVK9cVbq4d1ZzaN3adRawBEuvXn1kwIAAmTlzlqxblyEHDh6UkydPyqlTp8xpZGDGgBkDb8dAZuZh2bJ5qyQmJEn/vv2llaOT1KxaXTwAlqgYWbdmrQ1YgoKCxc+vnwwaNFiWLk2VzMOH5dat2/L06VN59uyZOY0MzBgwY+DtGLh3756cPn1GVq9Kl7DQMGnXpq3Url5DPCBwo6KzA8tA8fPrL4MHD5Hly1dKVtYJ+fXXh/L777+LOYwEjASMBLJL4MmTp3Lx4iXJyFgvkRGR0t61ndSuUUM8OuEZ+guw2DSWkJAhkpa2Qo4dy5IHDx7I69ev5Y8//sh+T/PeSMBIoIxLAGC5cOGiwKVEhEdIe1fX3IGlT59+ArCkpi6XY8eOG2Ap44PHNN9IIDcJ/BVYwg2w5CYo87mRgJGA/RIwwGK/rMyVRgJGAnZKwACLnYIylxkJGAnYLwEDLPbLylxpJGAkYKcEDLDYKShzmZGAkYD9EjDAYr+szJVGAkYCdkrAAIudgjKXGQkYCdgvAQMs9svKXGkkYCRgpwQMsNgpKHOZkYCRgP0SMMBiv6zMlUYCRgJ2SsAAi52CMpcZCRgJ2C8BAyz2y8pcWYYkQGItmfsk2b5+9Vpf+dsk3No3CAyw2Ccnc1UZkgDgAaBQZ+jXX3+V+/fv6+uTJ0/k5cuXplSIHWPBAIsdQjKXlB0JoJW8evVKnj9/Lrdu3ZIzp89I1vHjcvrUKbl69apY4GI0l/ePCQMs75eP+W8ZkoClqVAV8fq1a7Jzx06ZmzJXpk2ZIkkJibI+I0MuXryo2gvgY47cJWCAJXfZmP+UMQkALL/99pvcuXtXMg8dUjAJHOAv3T26Sr8+fhI/IU727N4j165dkxcvXpQx6eStuQZY8iYvc3UplgBmEKbOxQsXZPWqVRIRFq4b87EnTtOGjaW/X19Znpomp0+d1lrPpVgU+W6aAZZ8i9DcoLRIAPOGcqvHjh6VmTNmiLenp1T+6Sf5/J//LeW/+17at3WVaVOmyv79+/U6gMgc75aAAZZ3y8V8WgYlgMfn7t27cmD/fhk7eoy4tWsvFcqVl3/945/y/TffSsvmLSQqcqisz1gvV65cUYLXkLjvHigGWN4tF/NpGZQAwIInaOfOnRIVSWV5V90atNx338vPP1aUpo2a6M6fKUnJcuTw4bc1n8ugqD7YZAMsHxSRuaCsSABC9sb167Jt61YJDw1V0rZtaxdp0cxBmjZspHsR8xo9NErWrl0rly9fVtd0WZFPXtppgCUv0jLXlmoJ4GaGuM1Yt04GBQVLL19f8evVW/r07CWeXbuJi1MrqV65iv49Z9ZsOXTwkDz89aEGzWESGbPoz+FhgOVPWZh3ZVgCgAJRtgTDLV2yRD1AeIGiIiJl7KjREjN0qPh6eUutqtWkk1tH1VpWr1wl586eVZPIisg14GIbRAZYyvBkMk23SQAwIIT/zu3bsnfPHpkze7b4eHmLf7/+Ejc+VhbMmyfzklMkZmiUODZtppqLj3cPiYudIBvXb9CoXECJGBjjKTLAYuaVkYBKADBA48DTs3HDBhk/bpy4u7lJPz8/dS8DHju2b1eA6e3rK84tnaSFQ3Pp3q2bjBk9Wtakp8u5c+fk4cOHyrkYrUXEaCxmcpV5CQAsz5+/0LygpUuWypDBoeLk6Cg9fXxkxrRpsmvHTjl18qTs2rlTw/t7+vhKyxaO4tC0mYLLxPh42bljh9y6eVO1FgMsBljK/KQyAhA1g1hhjxw5IrNmzRKAo36dOtK9a1cFFuJa8Bah0ezauUvGjBotndzcpXaNmtKgXn0JCgiUZcuWyYULFzQj2gCLARYzr4wE1Hx5/Pix7Nu7T80gAuOIuO3UsaNMnzpNDh08KPfu3pXHjx7LtavXZPHCRRIwwF8a1quvcS49vL0lMSFBuRZSAgzPYoDFTCsjAeVX4EcwZ4ZFR4tT8xZS4YcfxL2Dm8ycPl0OHzokvz54oNc9ffJUtm7ZqpG5xLjUqVlLvLp1l2lTp8qJrCwBoAywGGAx08pIQAEDr87WLVskIixMHJo0kYrlyotHp86SOGeO5g49evhQ41SoJnf06FFJTkzSKNzmTZtJDy8vmRQfb7vu0SMDLGKAxUwrIwEFFpIPN2/aJGGhoQos1StXlZ49fGTh/PlK3KKJwJ2gjRBEl756tYSFDlHvkV/v3hI3YYKG+aP54Lou64fxCpX1EWDar54cyk8CLBHh4dLayUnD+AcPGqSu5EsXL8qzp09VUoDLbfKJduyQ2PHjleglkG70qFGyb+9euXvnjgJVWRerAZayPgJM+xVY7t27J5s2bZKhERHSwdVV+ZXRI0fK9m3b5OaNG28LOwEsmEWYQ3PmzJHAgADp37evfm/L5s1avpKylmX9MMBS1keAab8Cy507d+SXjRu1LEIXd3eNYZk+daocOnRIi2kTQGcdz1+8kHPnzsvixUtkSOgQwRQKCgiQlStXypkzZ7RYlHVtWX01wFJWe960+60E0DBu3LghGWvXydDwCOnWxUOCAwNl3ty5curUKQWK7LzJq9evVTMBSCIjIpXE9fHykuSkJAWiB/fvv713WX1jgKWs9rxpt0oA08ZWjvKirEhbrlG3BMZFhofL8rQ0uXTpkppB2V3IfOfmjZuyds1a1XC6du4i7du0lQnjY2Xr5s0agcs1ZfkwwFKWe9+0Xb08eITIap4/d54EBwRqHZZRI0ZoVf6bN2+qlyc7UPCeglBUkouOHCodXNtpvZbwIUNk1cqVcuXyZb1v9u+UNVEbYClrPW7a+1YCTHy4E8ADL8+UiZOkt29P8ejcRSbExsqWLVsEUjcnQFjAsmH9ehkaESmtHFtK1UqVpU+v3jJ/3jxNSETDyfm9tz9cBt4YYCkDnWya+G4JMPGpGkeOD2ZQZFi41lrp2L6DBrwBNmgzfzv++EMge3FPD4+JkdYtnaRSxYri1b27llw4dfLU37Scv92jlH9ggKWUd7Bp3rslAKhAyMKvaFX+6TM0JoWC2YTqT5k0Sfbs3q3Fn/52hz/+kPv37skuYlnGjZMObV2l6s+VpFuXLpq0SGg/9zYay0VZt3adxgZRP7h2jRri0amTpk2sW7NWPktKSpagoGDp06efhIQMkdTU5XLs2PG3xYTLsgD/NujMB8VaAoxVzJRXL19q0BtmELEqw6JjdHuPxg0aiquLi27/QVYzkbR/O/74Qx4+eCCZBw/K7JmzdJuQBnXqimfXroKL+vixY2W+LovRWP42aswHpVkCgArmD7lB165clcOHMmXRgoW60yFFs5s1aixdu3gokXv0yBFNKnyXPJ48fiynT5+W1NRUGRQcLC6tnMW3Rw8FFjQgq1Tlu75bFj4zwFIWetm0USWAtsKEJ3yfzd63bd4iC+fN15KT7VzaSKP6DRQgCHYjF+jsmbPy7Omzd0qP2Bc2iYdnGTVipIJRn169tBDU4cOHFbyyx7688yal+EMDLKW4c03T/ioBtJVnz57JpYuXtFZtfOwE8e/bXzmVGlWrSf06dZWAJaFw37596i2iju27Dj7HY3TwwAEtmeDXu4/07dNHJk+apBuePX3yRHmWd323LHxmgKUs9LJpo0oAYMHLw4bvs2fN1uzldm3aCqUPmjRoqB6hmKhoDYyzatjmpnWwHSsZzydOnJCU5GSN1EVjGT9urOzYtk1BJzdQKgvdYYClLPSyaaN6aDCDrl27Jhs3bpQYCjo5ttTC2OzJ3MPTS6KHDpWFCxbKgQMHdKtVuBjA6F2HxdXgql6yeLEMCQ3VfYhGxMTI+nVr5drVq/Ls2dMy6xkywPKuUWM+K1USgFtR1/Ljx3L8+HFZuGCB+PfvL00bN9YoW+qqTJ82XdJXp0tmZqZcv35dTabcQAXhcE+0FoBq5YoVuiUr+ULsoJi2bKmcPXNaHj16ZIDFuJtL1VwyjckmAUAAs4SgNkobxMXGinf37uLo0FwiwyOEyvwQrgAK3iI0ldxMIOu23BPgIbSf7VYpadndw0MCBwyQ5MREOZyZKffv3c9V47HuU1pfjcZSWnvWtOutBAAAAuEwWxbOX6D5QG2dW0tLh+YSO268bNuyVTUPtljFXAJUAI73Hfyfk03O1mdkaARuxw4dxNfbWybGxcmObdvl1s1bdt3rfb9TUv9ngKWk9px5brslAFBYiYaT4icK2chs7k6Oz4xp03UPZv5vD6Bk/1GAhYpxAAsaS5tWzuLevoNt0/j0NXL1ytUyGyhngCX7SDHvS6UEAAxcw3iDRo8cpdnIzRo3FnKCqKGSdTxL+ZD3cSq5Cebu3btCMmJMVJQ0b9pUSAlga5BFCxfK+fPnVQP6kPaT271L8ucGWEpy75lnt0sCAAv8yv79+2XEsGHSsX17aePcWqNtqbly/tx5YVuPjwEWAIvKc2gsTRo2ksb1G4ivdw9JmDNHI3PhdgywhIvJFbJrqJqLSpIE8N7Ad+zZtVu5EEwh7+6eQk1b+JUb1201bT8GAIji3bJps0bfYl6RM0Qy4rQpU+RE1gklgj/mviVJvu96VqOxvEsq5rNSJQGNX7l6TUEEzQKCdVBQkMxNSRHygdiMDPD5GACAm9mxfYfEjY+Vlg4tpFG9+tLFvZNMiovX4lF4mD7mviW9AwywlPQeNM+fqwSY0Jg3hPGfP3dO1qana82VPj17yrCoKFm7Zo3yIHiDPsYM4oeJVSGgjixnOBt2Uezu0dUAy5OncuFCbmUTYmTdWlM2IdeBa/5RvCVgAQv8yelTp2Tl8hUSTlX9Xr3VDCKmhY3e86NVPH70SGNW2BmxW2cPcXFqJV7dusmkuDijseQCLCRtbtr4i6nHUrynj3m63CSAFvLit9/k9p07ttKTkyYrqPTy8ZX4CXHqZr5z+46aQbnd40Ofow2dO3tOC2uHBA8Sz67dxHb/CXLs2DEhC9qYQn8lb4fHDJOMdRkGWD40uMz/i6cE8AZZgXErli+X0JAQ3RLVE40ifqK6mR/ct8WvfGwL8PpA/u7dvUc3iu/Xx0/3JBo5YoTs2bPnbTG0j71/Sf2e4VhKas+Z5/6gBAAWQvSzsrIkMSFBSyI4OjhI544dZWJcvFCb1gqM++DNcrkA0hdwOnE8S6vOsR8RwDUoeKDmHl28eDFfplYuP1vsPzbAUuy7yDzgx0qASU+cyaGDByX+/2/azp7MdWvV0hKUEyfEaZwJwAMAfeyBuQX5e/nSJVm8cKEMGTz4jVbUXWbNmCn79+1XgpffKEsmkQGWjx1R5nvFXgK4mQmM27N7j4wYNlwa1K0nVX6upIWd0FjYDjW/wIIQADByhtatWSNDw8OVwHVs5iBhg0M185lERUymj/U8FXtBv+MBDbC8Qyjmo9IhAQWW23dk165dWiy7ft16UrNadenU0V1zhAi5x12c3wmPNoJJxXYh48eN08je5k2aSj+/vpKSlKyep2fPnsvr1++u7VI6pP3XVhhg+as8zF+lSAIAy+3bt2Xnzp0yLCZGGtZvoCch98lJyXL58mWtApdfYOH7kMRHjx7VUP6ePXqIs2NL8fXylqmTp6jX6PHjJ/nyPpW0bjHAUtJ6zDyv3RLIDiyYQg5NmkkrRycJDgiS1KXLdCP4/ATHWQ8Cd/Li+XMFqtWrVum+z107dxYfL28ZP3acbgeCRsPzlJXDAEtZ6eky2E4mMvzGjh07ZOTwEVqKspNbRzWLiKMgM7kg4kwAFvUOPXigm5yRJzSgbz/VWEgh2L1zp9y4fr1AfqukdKMBlpLSU+Y58ywBBZabN7W4NdGeZDT7ePdQV/OO7dt1M7KCyj7GHHrx4rmcPHFCFi1YoMStd7fuMigoWFavXKmRv48ePsw3n5NnIXyiLxhg+USCNz9b+BLQ4LUbN2Trli0awk/qvn+//pI4J0Fd0PAiaBoF5QbmPvA2a9LTtYwCyYjwLAkzZ8m+vXvVQ1VW3M4GWAp/fJtf+EQSAFgodk1eChwLSYIhAwdpEaas48fVNCnoiU51firKUfiJvCHOyLAwDZYDdNCiCgrIPpFY7fpZAyx2iclcVBIloITqpUuaSctEd3dzU2KVqvrnzp7VSZ5fj1BOudy4cUN3R4TTadXCUfcr6u3bUxbMny9nz5yRF8/LRhkFAyw5R4b5u1RIAK0Aj8/Zs2dlRVqaAkqnjh210BMaxZXLl5XvKGjtAff2rp07ZcL48VoDt2HdetK5o7uWVaDwE0mLBf2bxbHDDLAUx14xz5RvCWDiPHz4UPOE2EdocEiIdHJ3lzGjRgnlEtAsCmOC36e27sGDMnvmTC3azS6Lbu3ay7QpUzXbuSDc2/kWThHcwABLEQjZ/ETRS+BtntChQ5Iwe44EBgQIGguRsbif0SwK48DzQ+2X1KVLJdDfX3kdNJbpU6dqAB2EcUGbX4XRjvze0wBLfiVovl8sJQBxSwwL4fyUSPDr3Vvc3TrKhNhYjTUhhqUwjmdPn8rVK1e0wPbwmBgtrE2N3WlTp8qRI0cKJNK3MJ67oO9pgKWgJWruVywkQODb1atXdYKPHDZcvLp7qkkSNyFO9u7dq1nPhfGgABqJj3v37FFA8+8/QLp5dJUpkybLoUOH1DwzGku0rFtjSlMWxvgz9yxkCWByUOeWAk8Eqbm5thdXlzYSFztB9u/bJw/u3y+UJ8AEg9s5esSWN4R7G42FYtt7du+We3fvyutXrwrlt4vTTY3GUpx6wzxLgUmArGW8MPNT5oqvVw+toN+6ZSuZMD7WBiwPHhTYb2W/EdoIBO2Z06d18/mIsHCt2j96xEjdJoTQ/rIQy2KAJfuoMO9LjQRI+mNj9pnTZqi20rBufa2gjxv4wP79uuVHYTQWTxPmEJXjlqem6narBOYNjYiUNavT5cL585qw+MfvpbuEggGWwhhd5p6fXAJUjqN6G0WzCVSrXb2GAkt8bKwcPHBACzwV1kNiDsHvpK9erQmP7VzayKDAIK0wl3XsmDx5/Fh+p2rdBzaeL6znK4r7GmApCimb3yhyCeD1oZg17mX2VK5VvYa0dW6tJGpmZqbyIIX1UK9fvdYC2xlr1wkV6anN0se3p8yaPl327dkjD3/9tUBzlAqrHfm5rwGW/EjPfLfYSuDunTuye9cuGTtmjAJL/Tp1lOuYM2uWBqo9fvy40J5dgeXGDVm/fr1qLM0aNZYuHd1lzMhR8suGjcKzYS4VRoBeoTUqjzc2wJJHgZnLS4YEqEFLHRQ0FmcnJ3Fq4Sj9/frK4kWLlFiFYC2sg6jfmzdvyoYNGyQqcqjUqVFLWjZvISHBAyVtWWqZqM1igKWwRpe57yeVAMBi5ey0b+uqCYhRkZG6reqlS5c0s7mwHtAClo0bNwq/Wb1yFWlQp56QjDg3OUXzlMgZKs3xLAZYCmt0mft+UgncvnVLi1vHxcZqEqBvjx4yKT5etm/frnlCmCKFdQAs/P7mTZu0fALAQhHvbl08ZOaMmbqnMRPPAEtSsgQFBUufPv0kJGSIpKYul2PHjr/d7Kk024qFNfjMfQtXApgi27du08A0NmkPGDBAUpKTJfPQIY26xXNTWAfAAnlMThJJj/Vq11HymN0BplBc+9x5McBiIm8La/yZ+xaiBKwCT+NGjxFKRIYOCpG01DQ5eeKkPHz4qFC34kATIY4GEJs5fbrgbibLWUP7J0/RUg6lPRnRLlNozpw5EhhoNJZCnAfm1gUkAbRnJvalixeVTxk1fIT08PSSqIhIychYr2YIxG1hatn8PrEqZDkvWbxY+vTsJR3atZMeXl4yZfJkJY8LYj+jAhJZodzGLmCZOnWaBAQEGVOoULrA3LQgJcCkfvnylZw5fUaWp6ZJzNAo3YaDim7bt22Xa9eolv+iIH/yb/cCtKwkyI0bNmj0rY+3t5K3kydO0oLb7MDIs5bWwy5gGTFilPTv72+ApbSOglLSLiY0/Aa7Dh47ekwWzJuv1fLZ34d4ln379mkdlsIkbhElz0E+ENG/FNGeMmmSFvFGc4kdP14yDx3UDOjC5Hk+dZfaBSyDB4eKn19/BZbBg4dIWtpyOX7ckLefuvPM7/9VAtaEfvTwkSYazpk5S4IDAtUU0gmdmamTnUlf2IeaQ0+e6DzBxUwMSy8fXxk+LEa2bd2qIf8vXpTeIDm7gGXIkDDp29cAS2EPRnP//EkAYEEbQVNg8k6cECd+vfuIV7fuEj9hglZwK6odCXmWFy9eyLlz59QkCw8dogAXGhKiG8WfPn1at2VFw+La0nbYBSxTphiOpbR1fGlsDxMUboN6tuvWrtU8Hc9u3dUbQzLi8TchEkVlgrz87Te5zC4B/7+oEeUTqMvSp1dvmTNrthw4cEA9R6W1hIJdwJKQkGjiWErjTCxlbbLMDzxCy5YsVfODQtbUnI2bMEGyso5rVnNRAQu/wz5D5AdFhoVLB9d20snNTUYOHy6bfvlFS2eW1pwhu4AlKSnJAEspm4SlsTkAC8mFmBnJSUnSu2cvcWruKG7tOmit2xMnsuThQ1tmcVG0H2C5fu2abN28RYHFpVUrcWreXPz795e01FS5cuWKalil0TtkJ7CYyNuiGIjmN/InASYobtzjx47pdhsenTpLo3r1pZ1LW93nxwYsD7VkQf5+yb5vAyy3bt6U3bt2q1nm2tpFmjVuLF7du8v8uXPl/PnzWm3OAIsJ6bdvRJmrPokEIEKtiFcqxVHjtlY16rC4aGj/iRMntA5LUZlCVmj/4czDMjEuTrp27iyODg5aviFxzhwNlEPD4rrSdtilsSQmJUugyRUqbX1f6trDBL1//766mkePHKmlEqpVqiyuzi7qITp58qTgii4qYEETobD22TNnZV5KiuYrdXB1lc5uHWXWjBliAV2ZBpYAAyylbiKWtgZZGsLu3btlWMwwzc+p8tPP0r5NWyHilRB7QumLaiLjpaI8AvsbbcjI0IREX+8e0rVTZ5kxbZocO3pUNayiArqi7G+7NJaExCQJIFfIr5+YALmi7B7zW3mRgAUsbFI2Ytgw1Vjq1KgpZDfPnjVLY0pI/itKYMGdzG9SwDth1mwJ7D9AOrl1FJIjt27ZKteuXlMCtzjEsvAMnGha1vu8yD/7tXYBy5zERPEPDDLAkl1y5n2xk0B2YMGl26aVszRt2Ej69u6j4f0UeCIBsaiABQExSdFI2A5k2dKlmmUNicteRwvnL9DUA3ihT6m18Iy4vZENphsn7/nMApm8drZ9wJKQKP4kIRqNJa/yNdcXoQQUWO7c0cpxo0eMkA5tXcW5pZOEhgyWFWnL5bomID4v8uQ/Vn9cy2vXrBEicB2aNFWtJWZotGzIWC9XLtvczkUoKv0pSztBq4Kb4hlPnjghcFGXL1/WCGaih5Er1+blMMCSF2mZa4u1BCxg2fmmwBImBwFyZDZvWL/+bQIiq3BRH/AsW7dsUROtRbNmyv94d/fUDeut4lMfqx18bFv4PYCDFAj4HjKxqQlMqQfkdfjwYZXZx5TRtAtYEhITJcCYQh/bf+Z7RSQBgIV9k7dv3apEabcuXZRfmTxxouzYvv1tAmJeV9+CeHzMnUMHD2rhp65duoijQ3Np29pFhkVHS3p6uhZ/wvzAJCqq57PyqtBSFi1cqLE2/fz8ZEDfvvpc8+bO1R0NkGleEzftApbEpCQt9OTXp58MDhkiaanL3+ZdfIyaVBAdZe5hJJBTAkzK27dvy9bNmxVYvLt3l96+vpKYkCAH9h94G8NSVBM3+/MBGiQkrlq5UsKHDBHczo7NHLRGy9TJkzVpku1XIXqLAlyQAb/Fjo2kF0SGR2jcT+0aNaVuzVrSrk0bfc5NmzbJxxQftwtYkt7UvAVYTM3b7MPFvC9OEmBCEun6y8aNQhwLdVgG9OunqzEJiEykojY3LPnwbJgcmBcL5s/XmJbWLZ2UYIZcnjZlqmpVV69ckadvntP6bkG/Aio8D/sb4a0CeD27dpOaVarKd19+JT98862wD1MvHx8FwrNnz6rbPC/PkSdgMcW08yLaor82b/Ra0T9fYf8i2cTk5pDZPGLYcOnp3UMGBgbJiuXL1Svz/M2WG59CY+E34SquX7+uOzROmzJF/Hr1FjxEbu3aSZB/gMyeOVMO7Nun4IiZkp+D3+MESAERTsu64DM0KAL3VqSlyZDBodKqZUupXqmyVKtUSWpVq67eNEpppi5dpoQuYJeXwwBLXqRVzK7NPnjYC/jV69efbEX+1KJBFi+eP9cyBatWrNCSlD17+Aj1TyhbcPHCBfntxQsbf5FHD0dBtY2JzYTWQt+bNsnE+Ilao8XFqZWSzMGBgQqCBPLldSLnfEbAA16E38N9TA4VGhtkrWpPd+/K3j17NCKZrOvG9RtoXhXBhO4dOrFfGrwAACAASURBVKipRmGqRQsWKrGb150jDbDk7JES8DeT6DUD59UrDa56/OiR/PrggUZxMnis+IMS0JQCe0RrFT539qwsXbRYIsPDVZWnDsrmXzZp+QI0mk+5Ebv22xtwIQGRLVjxWGGGtHFureUdZkybLrt371KzydIw8iokfgcQvXf3rpw9c0bNHUpknsjK0l0YAYlLFy/J2vQ1MiRksDSqX193aqReTHhoqAwJCRFAmVKayYlJcnC/rXYMMube1sH77Kf1Oa8GWLJLo5i/pxMZbAAHg4O9a4g9OHXypBw9clRXFmqRsDqxWmUfBMW8afl+POTy6OFDnTyUTEBTgSOgmDbuZ9y9rNSf+qBPeA60iDNnzsiqFSvVbCM6GLOITeTTV69WzYuiVbQrrwcAwMbzWcePy/K0NImPi5PxY8ZqRjX7WVMjJvNQpu7K2LePnzSq30DY0I2gwpSkJJkycZIEDvCXnj6+MnXyFNm+ZavcunlLxxT35uS5GGPWyd98bh0GWCxJFPNXa0BauSeACVuIMghRV+cmJevr9m3bdFBy3ccMymIuhlwfT9X7e/fk0KFDMm3qVAny95eeTJZhw7SgNat3cZGH1Ze4oI8cOSJzU1J0X+lWji3Fv/8ASZyTIMePHlNwUC0r11a/+x+0E+/Yli1bZNyYMdK9a1fp2KGDaicUGIewXb1qtYwdzf+6aUxNTFSULF28WD1qC+fPl8EDB2lJz9EjRsna1emq4Tx/9lxB8RUm1pMn8uD+fV3caAcmFyBjHQZYLEkU81dWA1YwPAtMntRly3Rg+Pfrr94PNuXy9+snFJDOPHioSCulFQfRMQFv3rihYMtkghjFKzR65CiVF6ZicQEWS16/vfhNy2iuz1ivBKpj8xbi0bmLPvOO7TtUS6DP83owwdFk0Vb6+/WVWtWqScVy5TQZc3hMjCxdskQo1dnPr6+wr3W7Nm2FMg779+/XqNuVK1bI4EGDNDo4dNBgXbDY6I0ETrTlZ0+fCntjnztzRjVE3OgAGeBiHQZYLEkU49c/AJVnz5T0o1ZqYmKidjyDon7tOlKzajWpXb2GtGjaTHNRYPrJTbFl8qL+/2kXF+Nm5uvRmICXLlyUjHXr1AwiCA3zYszIUXI4M1NNj+yqer5+rIC+DAAwIX/Z+IsCS9NGjZXrGBgUrPwH9XLhzPJyAJ5WsSsWGWTw848V5OsvvpAGdeqKZ9euEhYaKj19fBRQXFo5606RlPKkjAPcz+pVqyQ4KEhaO7VScnnqpClyYN9+BZP79+7LhQsXdF/qRQsWaDmItenpGkiHVmgdBlgsSRSjV1Rl62Sg4O3Axt2/b58QDUmnt3VpIwQzVShXXn749jsp9+13OoC0vmtsrGzbskWJuhcvnpcJroXV8tSJk7Js8RIlHi0ylHiW4gws8GRbNm/W0pUAS4O6dXWbkGVLlijxyuKQlwOvD9oK98TlTrGriuV/lK//8x+hNk3TRo3ExdlZ+K3GDRrq/0OCgmV9RoYCBjlCmNeB/v7i0KSJtHF2FrQc7gfhC4fHntST4uNlUHCwBAUEaBGrzZs2CTE4jFsOAPHChYuybu06iQgPl/aurlK7Rg3x6NRJo3rx1H1mBciZOJa8dPHHXUvHsLLCGXACKqwER48cEWxfsmJRXRkYJLO1aOYgDevVlxpVqmpgU5OGjXRzLEofnqaw0aNHfyHVPu6piv+3Hj96LIcPZUri7Dmq3iMfNLpRI0bKkcOHldgtbhoL/UvyH1zZqBEjNGGyXq3a6iWaP3eenMw6oTxLXqT/5PETzZgmc5qav00bN5FKFStKhXLlpHqVqlK9chX5uUIF+an8j6rtenXtJpPjJ+pmbkT+4gpfk54ugQMGqLeI0p6MuTWrV8vJrCwF6SWLbNvGOjk6inPLloKbnMxtyGgWQsawDVguGGDJS+cV2rVvQAU7Fq8BfAr1OgAV7OWh4eHi7NhSmjFp2rSVYP8AGREzTIPAurh3EooaYRYRcEW9D9TX+/fvFTtuoTDkh7yIy2CSALjUYWG1RmM5CrAUQ4BlEuLJIglx+pSp4unRVQPTmOy4ednNEWLUnsNakO7euStbNm2W8WPHiYtza6lfp66eAC3JjzWqVpWv/v2FarhsVI+7OX3Vas1VAuRu3ryp2gvaSJOGDTVYrl8fP0ldulQ15k0bf5H42DjNdfrpxwpSrXJl8erWTZISEtQrydilXXgtMZmKhcaCcDjL7IEr8uVLHUxwJLgGcUfOmjFT4zKs4tCd3dxlaHiEknCoqKwgqL0tm7fQUOzWTk4yNCJCdu3YqUl5dHRpP+AVWPknjBuvgV6YiR3bd5AJ42O1uDYDvbhpLDwP3jut1bJkicaPtHVuLT5eXhqFS/zIvbv37Aq9QfvBHCSOZ+GCBWqmODZvLi6tWksPL29NIfDr3VtaOTpK+e+/V04OAJs+dZocybRlMaNlYJpt3bpVhsXESNvWAFMdITERPuWXDRtk4bz5EjowRGpUrirf/udLNb+7dOokxN+QZEl7eJZiASwMfGxDHgrhgHrFbRAUxcSkzU9A+vPntZQh5QtZUUivZ/XF7OGkpgdkGxufo9WQB7P0DbcAuDB4UE/Xr1tnSyB743ouqaBtLTjZX3P2Bys7m76PGzNWgaVB3XpqUsyYOlXjfBhXxW1M0R4IXNsWIZtl0puC2wBLXGysah5sYv/qFeaFrcV8h4nLHOFkIbIAilgdFqPx48aJZ7duWkGP6FnANikhUbkQv169BHPZrX0HiY6KlrVr1ip/Z807ND/c0VMmTxZC+ps1aSL9+/aVlORk1VrixsfqeCz3zXfy5b8+l5/L/yjuHdxkYny8UBL0IZ6jly8/LbBYAwWkJIeCKEGYaXayA2QKeiDwe8X5wLMBAUbdDgaHV3dPDbWGdEO1ZzUL6D9Ak+owj5hMfAdzafvWbRrFiRegdatWOigox8hAQ55PijglvyDlzDhgMjEJdTK9KS2QvT8tYGGPZsCXAk8QkHANADXjKfv1Bfl8+bkXbcMEoZL//Hnz1EWOZgqhumDuPMk6nqV8Bdfx/MiAyU+yJe51EgnxGHKPrKwsHRtoGMTEYBJjKq9Zna5m4tq1a4VM6kHBAzVUIXVZqppbzD/ui4yREzFSlFGgQBYLWsAAfy3tyQ6OLHSUe/j6i//Il5//WypV+EnTEcaMGi1bNm9RjQclAdNTTaF1n4C8VU2F/I7Ll1WNJaV88aLFKgQmA5MmL+DCtVajWMnxtaMicx+Exu+BzAxCakyg9v364Ff9DMFanZefgfIx3+W5nj9/phuFUzdk5owZ4uPtrfY2rkK4k5ZvNrqic/fv2/92Fz3axaDCHk9JphK8vwIL4BIcECBzZs1SFp/0eFYTri8JB5PI0mTpLxYeBion7+lX+toaH8gAFR5ggVvo0qmzFlViRYaQBJCKI7DQF0xsMojhOog7oTgVBbchdPG20F7ainnBvDh69Khs27ZN687gKWQxIheKz4iydXdzU49PD08vmT1jpsY1EW0L8GA6L12yVCvXHTl8RDkVa+wjS95fuXxZeRa0vy4dO2lpzzGjR9sSO3v4SEuH5lKxXHn58YdyyunhTBgaESlr0teorJljNmC5KOsUWCKK1iuEsAAA8hgI0IkeGiUDgwdqJGJmZqb+j4ZyMChoOIONV87sA4W/ARDiAkBcBM4kPX78uG3FfvJE/w+IEe24c+dO3UiKUHjcaNbqz/25b/Z7F+ZE5HeIYkQd3rlzh24LEdC/v6qgdWrWUuaeVWNgUJDMmT1bdu0kJPuaPHtq0+hoNx0JcGSsy9AOZrUiBb55k6bSu2dPVWvZJB03JDIqiMOSkdUPBSkv7kU/sHqyOBCaTuFpFp6Vy1eoRkcfP7j/QF69tBVGYqHYsGGDMAE6tGsnfXr1kunTpqnGxgICoBbkMxaEDK170CdXr17VHRPREkgKJCapT8+eGnaPNgPXcuH8BW0PZRfYNwlziZIHbIjGYkMWd/TQoUJsCuZOcECgmi/nz51X8GKMAzCAGOUwmXuWZZC9P5Hlnt27ldtDA+YE8Hr5+ipAwN1ABkMMN27QQNq0bq1uZ7g+7g2ooFWpu3ldhkSEFzGwkDx34dw5SVu2zBbw5eqqamzEkDAN0kGQNJxBxorDnjCsTJw8PMDE/ziZXKA5gISAZ06foYLn3gcPHFAU5v9MMGJB2Mt30sSJMn/efN1bF56ClQ2BkMDFPQt7IHJ/IkZx8+HRSJgz21anw8lJalarprLAHKLiPOHWREbSBtrK83FwD2QDoO7bu09VXKfmLeTbL76Urz7/Qk0otJ/kxEQFVFb6/B6ACYDPhOBZ6COewXqmvNyf5+d+FkBZbaJvGeDsakh/0l+hg0NVPZ80cZKWTrx86bL+PtcSTEY0MsmHhK/j1aDMIol3jJWPeba8tCM/1yI72nrwwEH15nTv4iG4nSkGHhMVLWmpaYJ2sXH9Bp3s8GfEK3l07qzjhfFMtCypACEDB2lCI8FtmCcUcWLMWPK1ZG39jfw5rYP3zAE0YML/SZDkXq1aOGrof9PGjVUjhvcDAJ2dnPT09fZW7VhN9Pv3VaP8JMBCA1iN9u3Zo8E2XdzdpVb16vJzhYrSrYuH7gMDCoOyDF4Ez0Pv3rlLzSbe4xrjf6iSGrizfbskzJmjqzv1TkFubMK5ycla/Ae1cvzYsZqchg1OEJWvt49ER0Zp7VEKG7M68lt0dmEdtJ2O5TeIUUG7wmRhT1/298XNR3xAoH+AAiTuQ/gnVl4mcc7Vl7+R07FjxzQVn7Zh//7f//W/NeKyUYMGEhMdLb/88ouq1Uwya2DltY18D0CxVr9zZ88pQXzn9p2/rH4fuq8lAwAKOQAOvOf+PB+D+9SpUzY3e0SEDuK6tWpLg3r11Uxkwy+0Tdyr9Ne+fft0IQFEUc0JyoJTuHLVpqXxe8X1eP3qtRCHg2YBKU99lBYOzVXrIOOYMYzXhYRKH08vdacTj0LAGUQ9YDpxwgQFkqCAQNUwSGlYvNBW8oDFxGo/r9aZmzyIhTl96rQ6BJiL8HsUf/r+m2+lVvUa0qmju/J5jFc8Qpjp8DmQxHt27ZK7UBAPHnwajYXGoZYxmaMiI/Xhyn33nXzz5Zfi1KKFRISFaXFf0JaBQ+VwAsQmxMYq84+fH2KSPAU2AQfN2ZTKr3cfFXylChWl/Pc/KPnE6gV6E9PQ3cNDmjRoKFV/riw1qlYTh8ZN1Kbt7dtTxo4aLctT09QWZZWzOiO3DvjYz7kvYMBvUG+U3A34ENx7zZs2VXKMsG7UXFyo2NCAJ995FyDwGfY3k3zO7DnS2b2TEGPwn88/15MAKUwizE1UXNRu1ODsmo+9bWHyozHiIkX7o/o9fYjLEnABFD4kN/7Pdbpg3L6twATBynggK5eJAGfAakuAG5MLs5CBTRQpqvewqGjljvge9UuowTIwMFBliJuZBDtMS9rJMxfng/5TDe32HdU6Z8+cJT7ePVRTgCglRglThElOHBMeL4oxkcbRsF49TRZkkpP7w4ZolDyIiogU+BTGDotRXg6uh8siApfSCdRqIbIbXoVavUH+gbJo4SIZMXy4ks3MIcdmzSQ6MlKIc4FUZuH5ZBoLtTSXpy2X4IAgIXr0qy++0JUWYfXr00dXKwYYjdy6eYvacahlzZs6qOBnzZwp69dnyOrVqxRsYNNrVKkmX/7r3/KP//1/5L//6/9qAA9eAr5HjVECyCpX/EmqV64qtavX1LD4mtWqS9WfK2mk5rCoKNm4fr2Sox+aIHnprOzXcl9WadyDlFG0RV22VD4Fz09wYJASbIcOHtJr0BDeN2EZmExSOJQlS5bIgP79pXkzB11dmIg//vCDepSos4GniArsmBh4Frh3XtrJoKPf0P4mT5qkUZnk4wDIABuT+EP3s9qP+YbmyfOsXrlKuRM0s/PnzmmpAyqqASoMXPr15x8r6mKAVgcQs50GwWUk7E2fNl1XT2x+z27dlQDn3k+f2spRZpd/cXxPH9IXLKR4BWPHjdNJDZHr1MJRTyY179HIcPGyEBF2jzmCTIiEJQSfchHxsbEqWyY4Lum8HIActADARLwU2j+cClo0HqepU6Yor4PM+/TurVokwI+JBhixQLD4FDmwMLAYgKdOnlJyakDffko04v1AxSMiEP/7gnm4244rC44NCWLjekUTadKosQT4+8u4sWM0l8Hb00sa1msg5b/7Qb758iv59quv5cfvfxBAA6DirFe7jqIvtUYJDsIMYuBCdlb5uZICD6HMRBnCjDOZP3TQlj9+t50futb6vzWI+A28YJg89WrX1pUIzQm1F4IZ4KGTdaK+R5Pn/7ri3bmjnoFp06ZJWOiQtx4GVjhyRNq5tNFSAhB8AAHggnZA0Sh7DzQjQgLgL3DnYnv7enlr5Cg8gAWC77ufBYSACP0KMIUOCtHXtGWpCjKAChm2OnFaOmmwW8f2bjqpCNVng3XkBP8AT0a1ezQVJhgeChLpMI/tAbr3PWtR/s/S4kgEZCuOhNlztEYK5TUJz0drgUMZOWKkLqRo4pgggCmcXNVKlaRJo0a6KCfMni3nzp1VxwDyzsuBzND0cHxQkiN23HjNZRo1fIRGBKNJYrbBwVDmgfFFRC/xLvQH49qWrIhXqADIWwY4jUBAqO08IK/ZV1uu4TMGNGTjxLh46e3bS9q5tNVByiZToDRFZtBIMAV2bNsu5E50cnNT1ysqMXkPuBUBBq4njJtoS9TDZo1B8VaqgfA/Toimjh3cNJ0+KnKozJo+Q4OGJsVPlMGDQvR6VgKEQzwBEYxM1ncdVjtpHxMJMwW7lPcQv2gj2dues2OtiYUZN3vWbK3UToQjkwKiFu8OqznagYIboPIBYEGmmFaw8njDcF1iY2MCent6ajh3nZo1hZPIXEyFTb9s0hWSgCbaZM/x8NeHmi9CNDD2NSYnQE2RIMwsgIdned+h/f/ggfIiJLN5uHdSPgHvFwCDacxi09ndXQERsGVQjxk5+m36AosPfAIRx3gTKZpNyQE8F/NS5qomc//evXeaju97tk/5P2tu0I+Yq7iV0V5WLl8uKUnJsnDBQlm5YqXGizC56QNMFRIXWUTLf/e9yit00CAlsq++4Zdyjr8PtZHrGXuMwWNHjsrO7Ttk44aNGisFr3XxwkXl+yDVqduCB4oFnKJRuLLRaAscWJhURI+iCsGNUAwGdyoTzZqQPDRuX5KdIKpwZ6GNUD+DosK8YiuClIS0U9B34oQ4cW3TVjUW+IOqlSqrqg+QVPmpkpo2mFOAiDXgCOdmYlGVixVt1MhRSu6iruFhwYO0dcs2SUlKUV89DDgcDYDGBk6PHj3824SjDUx2QIQ2ovZhAlCYGC8FHh5IZUhZCEjaykTKPnEVBN5UOwPYsIkdHRy0ihcRjpCwgNpfBsQH5j3PhOxRfXFdwz3gEcnIyJD4CRM0n4O0ecwiTEEC7dCWeO68cC3cH1KdSEvIcUhiViwqtmHWQTC/1bLeMYKRA/8nNoOM2rDBodKwbj359suvpGL58pqWAK8AIQjX5ta+vRYrYhzA5+BmxSPBQG7zhn+Ag0Bdp/8gbZmMcAsEjr0NWX3HsxTXj+h35gvzCK0V7QBt8ETWCX2PuQQ9QNwIpTdZSOE/6FcWR3jI7du3a19Y8y4vbbXGOP2EAnD71m25cf2Gcmh4Zp8+eapjBhOWAlForVgDcDxosoQ+oPEUiCnEwyAQJhOdiglD7gAZmkw+XMtMKBhwHhb+YOaMmQIvgorey7enComQYUwDBg9u5xlTp2nSU0jwQHFq0VLwDFBKD/UPQX7zny/l83/+j4JLh7btJDpyqA5APC0Qo2S28n7vnr1y8OBBzcCkY3hOVgYGOCstpfsomoQJhmuTuqN37tz+24pHGwEVBMf9CSOnGhcqPeorFdy4H7+LRsLAsCauBS4AABOQ50Fz6NOrt4Lr8GHDlLDkmXKC0YcGhjUY+B73JyuagQnvsmvXTpkYH6ckHwMAuQHeVn4HbeE79hyA6Z7dezQHB+/TF//zL9USB/Trr3JntUJrQU5We637go0U/H78+IlQOIio2L69emtmNvVC/vOvf8l3X32tRCGEM5wBQMFCAEgSak6yG0Q0aj8npjHmM4Q8Y2ZC7ARd6ZVb+IDmZD1XcXy15hPAwHhDpixSTPaXv9lMFbT5SXHxuphStxZ5BQUGKjeJOUW0dV7M3Jxy0Gd4/bvOWeKFdP6+KUnJM1HyMy52gri7dVSLQRerhQvzASxpy+XY8SxdHa0BxIpJo/HQsP0CgDBq2HBNcsLeJeqPIB8Cu9BkUK0oJIwajQoMcKCVYFdiU0JOMVCCBvhLbx9fBR9SuAkc6uHpqYMLMqtSxZ/k2y+/lmaNmqi2Y1ODM3XVZhIQ8owGAZjcvHVLHvz6Z6QtnQbIoSGQjEWdT9RpAnrWrFmjq0LOCc53AAWAk7Dn0aNG6e/i3vMfMEDDpSmkg7aF6krwEkABuCArDgYJJguh1rTVq1t3IUGMgC6qwwF41rU5O/t9fzMQrAHJ93l2fgtw2byZqvBxuqpTHMrNtZ0Sc+vXZSgXgVb5oYO2Q+rRd8OiYzTO5t///T9qDnXr3EVlCIizwgFU/D7f4WR8cPI8aFRoK5g3PIeNW6usRDskOmDBRPHq3l3JZgIo0QQh8jdkZKi5yCQiNOH7r7/RmjQOTZvJwKCB6q1gpdRJZQdH9qE2f8r/Z+9Pa1LrfPvdFlQJR8VcQ2uAVKU2CoT6nj17VJvOi4n73nb+ITYe8c34oh/pU+rcJCUm6lwkdANrg3IdkO/MEfoBs97+ALm05XL02HG5d/++Dh4aDZqi/mP7EStCKjWhv5g4NJxVB984E52BvnjxYiWi8NgQ7IOrl9wIyCImG+oVLiwXJyctE8CqhD8dU4f8B2xzNnpydnSSerXq6ITBrEBj0In8xgSBEUcIDHQd7NliOOg4yuyRzEeSlsaROLdWc2huylxd+fiuduYbDoJ2QgrSTlZTVHVMjGqVqqjHAj9/3VrsJNdWBg0cqMQiKiwrqDW5KNrEajN96lQlIQFRImsBKgCnoAYE7eM3WV0wPZnMuCHpF05MMLgrggNJbfjQQawFbn8iLDE30Rw//+d/yw9ff6Nu0MiwcNXcMK9or2UOs5BwfwU5Ip8zM3WrUXYpbN6kiXrqCAaDiMQrxsm44VkBPvguNEzuCe9AsWwqoNWoUkU1HHgeOLTY8bEa1n/r9m15QSKrnbzRh9pdHP5vgYz1LIxLNE0W8rTUVAVgYrigF9BWWOQ/ZnGy7v++V+7LuKJf0NQxg4ltwdLAVQ65z2JOgCtlN9ll8b2Fnvz8/twJMTPzsNpdmDgMGFR+VnFiJQhFxveNq5PtGgEOamzi48YThFo7Y/p0dYtSCY38FgY4sSh4BZjgrKoMGFYz7EeIKTgUyCqILAYcBCyDD20BzwKEJYLmeexRAeksJh0IS0FjyCeIKLwLqHhMfsAIIWrH/v6H1s+A0EKNBzwBlZ9+/FHJswo/lFOPFasoLDkRoOPGjtUVBEHT2UzOrGPH9fu456y4lciICB0UkHYFPSC4HxOTCGT4FtyUPDfbaBL7g5lIoNmHDtzTuHaRDbEygP2//vFP+erzf2ukKLkp0yZPUVOQOBc4LGKNOAlLpxAQ+yrrJlkhIdLOxUUXDWIzIG3RYFmECAQj2ArymbHCsyE7TuRD+Umus9UXqaZeRAY1XBzATP9jcn2AlvpQc4v1/+lT5AHYIiM0RZwhTGoAvaDHUHZhWCDHmGYhHzva5iCAYyG/iChyCF4WGBuwREp713a5V5CzgGXp0lTZuWOX+smJjmTFpxYrLDGBba5t2iig4LkhkAeThbyFhFmzFTxY7Sl3B4PfzaOrjCb0eOMvcujAQSVr2ZSaiQl/wiQFWLgPBB2Dj++TK7J75051K2J3Y25BcMFkAwY0/kOHBSwQYWhKCAYOgpB4PEeQU3QewEJHYWei5uOloqAQ3BDEI/Y9GhaxMmhgeF6IIsbvT1QkMR+44DC7IOIwgTAlyGlB5SfqGDIUIGN1t+fZP9S27P/nfphiAD/5RtSDxQsFOTpm1CgNdGOQ5HbwfWQAWBA2DyBCGAL8cCJEZUKmsn0FZCzpB6joENFsHcoWEmgZrKxTJk6UkcOGK7eG1oQMyY1ChSYuBc2Wk/FAjAoqNVqi1QdMJLgpUhRQ/wl4xOVJTIUVqc1qXtAyzE02n/JzxiRtZVxZEcjIhzFb2O3n/ixWbBlLeQ88d4R8EIPFAo/3CB5tw/oNMjRiqGqUuZSmHCh9+/aXwYOHyMKFi5WwZKAQNYqWga0VNXSo5i/gCqQuCEAAf4L9xWqGqjx10mTlXwAV2HzIUvJ6yJOw+BlAiFwJBiyDt2nDRjoZABUqqZ06dVLVQEhhQI2BRiNu3rCF+DMI7TkQDp3ApMfrQAk+6oACDrjRSHpjUGPqqbn39JlcPH9BE+GiwiNU/ceD4d+3n0b1UuqAlbRXz57S1sVF2rVtK0NCQ3WFxR7GHMFzQnUv6mUQo8E1cDL8FtegARb0YbUTFZncKSJU8boAhERPWqH+2X+X73BagAo3BilN2j0ufsu1j+aDdkqcDEAFL4LrGcDCZQxJTKEhqpAx6OBiOnVwU66MHQAhzElnYMVF20CroU/hU6w4HvqTZ+FQs+7SJSUO56WkaEEkihCxcmJis6gU5mqdXUbF4T1yQT4ADCfjtKjaT18wZ0mZoX87tmuvcxpzaNvWbbb8pg0b7QGWAbop/Lx5C4Q6uKNGjtQgpiGDB+uNcf9hd7OaMZjYeoEYEZAMkMFuxgvAQ6AV4K4k6IdAODQQ1FxS36OjonTQY0ZB1sIF4GaEuDt9+pT8+usDefnqpbLj7HUCchJLYmkX1iD8UMdzHUmAqPhbKT4cM0wY7EQ3QuQuWbRIVwPuy6lE75GjSjBjftEGgDE5IUEnBkFt68VtMwAAEjFJREFUpK4nzEmQwIBAjQANI6Fy5SoluiBmIYlxpWMCYXbBVZBEhjZBfsXH7CNjTzuZcJCmRFOSFYs3jq00AQE0M0DaOhRMlHi1eZgwLdDUAF8WB0wXNEj2+2XB8PH0Evf2HaSFg4O0bNFcunl0kc7uHVUbw4uHFohLmlfLLcrCQZiBmmJ796qmxkDlBMx5ZaLk7EsmkZreN2+qjU84PyBE3hnfy3m91SbzWvASoH9wLZPfxHzBS0jZ1OHRMbJi+QqNU9q4caMMjURjaa/eQ2KWSMfIVkwbjeVPYJk1c5aCRueOHXWgYRLAhwAs3Tw81NbCNMLTweRBa8Grw3W8wvyj1VB0hmg9VlMCmjCt0IK0lmtQsMA9EIZO1Xnct6h61qr0+xtXmIXU2Vc2e8TIIAThAQxsU/KPAAwIYtzfUyZPUU4IdRxPDaQrHAObOBHQhybVv4+fLE9N1cGNOcGqi6kGqOJGRvOZm5yigkTY4UPChNKSuMZRHzERWK0xgax22fPsebmGdiIbyD7c4KzwADreKMwSTBC0Nq7jZIJip9++fUd5NOJ0KJNIMCOgSIBdx/bttfwlZihAxWLRrHFjqfzTTxpFTCIlg4zFg0hZJ0o5VKuuWih939mto/Ji5BmxoGCq0Rc8p/X6rpWX56O/eUYWFPoOLQ8g4rvmKDoJ0E84SnAKECfGmGBOoEwQZEosDdvI2kyh9rlxLDZgwRRasHCRpMydq2o0BCY3A1QIvkK9pnQiRBruKIrpEheCttKgTj11EbJqwb+gxWA+UHnq+jWbSxaOhPgXqoIvXrhITR+4B8wIBlL2VcyaCNlf8ypWBi+DElCwCShGV1IIZ0APNMbUguGGjKI9EI1NGzZWbgUXW8badcrtsJICEATXwS3A2XASpAepGTvOFtyFechKj7mACo+2wDPQjsIK6KKdTECIaiYzfYS2BVFqy/M5q8CGZsZggWzduWOnbN60WTkhOChIdrxdPH/AgAGqae3du0eBFS4JExiSvVrlKhrwhxmErMg3IcaB77KwoBUS2MUYgXi0Eiyz96PKIpfO5H+0ByCxTv5+33dyuZX5OB8SQPYsusQXsYcRjhW0fRatyZMmy+rV6bJi+UoJHxJu01jevf2HjWMJDQ0TyNv0NWvUPYraQxg+LtbqVaroioaNxY+xwuMFYkUkf8PVpa0OOipPQegycVNTU5UfwR0JAjKwmZyot2gvTGZiUKwVraAHD/dDQExsTBWibkknsBIX4QBSEpNUY0KzgKNAcLi+WZGZOGgorPDcA3ChNgjua9zhmBy2PA8/lQ3tRmXEi0GOC7wKMSRMjMI8aKcC6I0bytrDrRA7A8BgipI3hFZmkaML5i+Q+Lh41bwIOoSUhU9iEcE9TtYxsTHXrl1V0pmkOarWsa0E3jvqpc6cPl3NQIAXYCJuBc8b0dbz5s5Twp+FBPkXdL8WpizNvW0SYMyyKBAUiTmN1gJ/5t29u2qzCQmJkpyUIiGDBkuHdmgsNXU+4LjIYQrZyNvUtBWya9du2bt3r2oU5Gqw+qG9sCqzsxsaBvwHA5XYB8LH8WdjJqEa28oCJOrm1ADJi+c2JpsBBsAwCQATTsCmsFckfhd7MT09Xc0VJj8Zm5htmDMpiYlanJrSDQAGHIGri4uMGj5cq+GjkvOcqOi3b91SVRBAIcERopSQfYCIFASCAqmij9sUTYn2FsWBqQUAEgsCgUz6ArYxrD7ELBwM5ClgPyR0iGpumIUACieeJIAFE46iQnBKjx4/kpMnTyg4ka9D3/J/XNI2t+MFNbNwsaMRArjEwfB7kK30rzlKpgSYM1gQ5I+hpVMjh6hoFtMBffvLuLHjZOLEyRIUGCwd2neQ2jVraQDq34AFdzOmUFraCjl0KFMjU+EmCGVnwyJsdzaiZnAy0WwaCOHr99T9RBQe8SpkXq5euVK1Gmo3MBlZtazAAx6Yv/k+Z1GtaHAQuM/gWuAMSNdHtYcPGBETo/VgUpKSxL9fPwUKKp7j0YC3ALkRMoBIoCDlCwAgJiLRpNSuxcNF7Adu5rFjxmiyIKCqbS+CsYUsMSfRIpn48EiQ7JRtWLdmjYYPbNJiWOPErV0HDRmo9nMlqVyhoqYB4C4k9mV4dLSCIkBMe2/cuC579uxW+QBSaCfbtmzVEpr8HiYYgZGYYZi5DELL/Q7YmaPkSoAFnwUVrYUFKTwsTM38fn36yrCY4TJmzDjxHxCgGgsLNZHtOYAlWKydEAGWY8eOK2CgPlvh1pCrvGcTJosLwUn48g1BanMPn1a7GnOBCVgU2oi93aamAh6iLVt1RSdQjmrk1HEJ6NdfPTrYkqzyHVxdtb4oBDXtph0ABBOFyUQcB94yYjXKf/ud/Odfn2tcDiYU2ztgcsFjoNEVthlktR9gAQAhY4lcBlSIWCUuBcDHYwTpBm9ENDNxROQCff6Pf2qELfE5VGgjwhMAxr7mnph/hPrj2SL2hAhrktYsmdA+xgPaCe3F+6WJqbiGDeFqdU+JfEUJoH9ZlNl6FRoE2iMqMkpix8XK+HGxEuBvN7As11oNqNUMGAYQJxMTd2lODYMfZwAy6cg4JYye6/mM/xWXAwGhPcF7QCwODAhU75XlViaKdsqkSRrsx+ba06ZOVa3DMmf4Pm2nbcrXzJipcRx4QQAogsmI9QDVCYUmMI+JzveK4njNplZPnqjmgIcHQh3zjCBF/ib4jUA9crSoTwMYkgv0P//4h/zzv/5Lt+scHBKinBkEL/1t9S3vARgWGmJe6GvaZfUvr/xNn3MCKNb/iqLt5jcKSQJ4Epk3T59qqgslQjF5CZKjxENiQpIMGjhI2ufOsfypsaSmLleNhdWHiWQNIAaKDpZ3gIX1P319M+D02kJq78felkFPoB379MAX4eXCC6Ip+WFhGvcBoUueC3wLVcosrYP2WJOHfCI4FNy5bIeKG56aMZhRpD2QWMeKzwQsKjnQV2gNEON4rXA3U2kd/gSvDmYMXiKABTOQZ4bEhnDWZ+8/QLUVtBLS55EVh9Vu7p99PLyrD7i2qNr7rt83nxWCBFAc3kQAs+Bg8qK9kiqydMky5ev+DOnvnLsplBNYStNAARgePvhVC9yQKQ0RiVuckxgXYnL4jHDy1atWyvmztipd2WXAe8AGLoF8FzwqeGBsROl0rReCTfqWWyqEvn7XLZn0/CbEelJC0psiQfXUTUzb8P7gFsZNTKV4OCLibqgUj3pLhCWp8mw/gmaavc3v+j3zWdmRAFoL1guaK4sX3OGpU6clffUaCQ8Lz5aEWEaBhTKTTL5LFy7K2vQ1GoMB4YSXCM1Ft12A9e7XT2vjwhth+uQ8+Aw3ObVL2AcGkpeJSREiEB0extL0cn63sP7m96znSluWJqEhoeLYrLnG4+D9IYKWgMce3T01w5xscXbLg3SnqBDEK54cquUxkMxhJJCbBJ48Ya+rS3ksm5DDFCpNKxdtQa3DZUxJPoL7ABZyYghjp3Yu5lH/vv10b13MJsyZnAdmAnwD2gEkLZnFeI/4G49ZUZpA1rPRNlYVuDG8NvGxcerxIomSE/OHiNluXbpokijENLVqABM0LMh2+BOKdZWmPrfkY14LTgIAi1aQW8sWqx8om2B5hUqzKUTkKys7ngu4BM0G7txFS2FSPpHSCLiQCfQiYpggQCZrzsOaxBCacClsjUGhK8stzW8U9cEzYQ6hcVgbUuEyJxSfaFlc4tQ4IfsZdzSJZGhdaHCot7TzUzx3UcvJ/F7+JfBXYMluCnXSQLpsAXK5k7elcfUCAAg3J63A06OrRpT+8//8l7pfCY6Df2BLEjSbdwELXYNcOJmM5DXxan2W/677iDu8YfAp+H3tim1PJ1ziJA8SDU39WlIzIG/Z85eMc7gi65l5NYeRgD0SMMCSi5RYpUkoTF+drqQteyHjesVtzB4rVLnDVCLwizotJeZAa3n1SuMOyMGizANlHst//722De2Fnfco40CFMADWHEYCeZWAAZZcJAbJefXKVc1mJmGOQDe2WCCBEhKXyv8H2AL23n3lHHK5TbH8mBgS+B/yuXSzNCcnrXz3w7ffqveL4DnC8cnjeRcxXSwbZR6qWEnAAEsu3YF5AydCJX5KP+CChcClRgyZydRVYUMn4jngLUrSgUkGZ0L2+ZjRozV58Mdy5XVbVlIZSM1AW+Gakta2ktQPpflZDbDk0rtMPswhCghBNI0eMUILXxMCjwZDDRkiZ5l8XFuSDrgS4g3IaCbSFhd6nVq1NCCOzePJ/SIOweKESlLbzLMWDwkYYMmlH5h8uIyZgGTmpq9aJZPj42X8mDFaLgIzgsn3KdzGuTyy3R/TNp6bJEJcylQCZLtaMs7nz5+v3jDyvcxhJPCxEjDA8gHJMQkhaE+xOdnWrbJp40bJPHhQN2Uj7wZTgWtK0sHz8ty4wclpYsuIhQsWyJLFi3VHAS158fx5SWqSedZiJgEDLHZ0CAQmkbK4lm9ev64lNAEVNJqSBipWczFz0MYAFwLgyNCmPCgFrIm9MdyKJSnz+jESMMBih9SYhEw03fzszQ5/pSE7l3ZBUgOc8EmcvC+JWpgd3WguKUIJGGCxQ9hoJTnPwqpNa8fjFNglVpsAmOxnSdXCCkww5kb5loABlnyL0NzASMBIIKcEDLDklIj520jASCDfEjDAkm8RmhsYCRgJ5JSAAZacEjF/GwkYCeRbAgZY8i1CcwMjASOBnBIwwJJTIuZvIwEjgXxLwABLvkVobmAkYCSQUwIGWHJKxPxtJGAkkG8JGGDJtwjNDYwEjARySuCdwFK9hnTt1FnY750N/T5LSkqWoKCyVZoyp6DM30YCRgL2S+AvwBIWoXt6165WXTzcO8mwqGhZu8YAi/3SNFcaCRgJqARyAku7tq5Ss1o1rVA4NDxSd0o0GosZLEYCRgJ5ksBfgCU8QlzbtJVqlStrWdfggCBZuniJMYXyJFFzsZGAkYD8CSwZEhEeKW1bt5FKFSvqVr1s7cvm8UZjMQPFSMBIIE8SsIAlY22GRIZHShtnF6lQrrzUrlFTWrdylvHjxhtgyZNEzcVGAkYCbzWWvwDLDz9I1Z8rS6MGjSQ6KsYAixknRgJGAnmTABrLxQsXde9mS2Nh+5yfK/wkdWrX1W1XjSmUN5maq40EyrwEnmYDFrxAmELstvlThYpSq2ZtCRsSZjSWMj9KjACMBPIogfcDSy0ZYoAljxI1lxsJGAnIh4AlLMxoLGaYGAkYCeRRAu8Dlto1a4kBljwK1FxuJGAkIO/VWHIFlrS05bpv8YMHD8w2nGYUGQkYCfxNAh+lsWQHFmsPGmsrCfP6961CjEyMTMraGHjy+Mlf3M0u2bxCuWgsoZKamibHjh2Te/fvy8uXr3SDKwDGnEYGZgyYMcAYePTokZw/f0HWrSOkP0JcnFu/dTf/BVgCtWxCXxk4MEQWLV4iBw4elGvXr8vDh4/k0aPHui0nW3Oa08jAjAEzBm7dvi0nTpyUVStXS1joEA3jt+JY/gSW5GQBWHr16iP+/oEyc9YcWbtuvezbf1COHz8hWVknJeuEOY0MzBgwY+CkZJ08JYcyj8iWrdslJWWeBAYESssWjlL+++/lpwoVpHYtyyuUnKLA4uvbS8Fl1OixMmdOoixZmiorVqXLyjcn781Z/GRg6581snLVX0/TV8Wvr0p6n+gYW71GUpevlLnzF8r48RPE16enNG3cRMp9993fgSUgIEg8Pb2la9fuwvvwiKEyfMQoAWSynyNHjxVzFi8ZjBo9TkbnOPmM0/RV8eqrktwfNhwYJ6PGjJMRo8ZIVPQwCQgIlPbt2kvd2nXku6+/kZ9+RGOpLWFh4fJZUnKK+AcEKah06NBRPLp0Fc/uXtLD21d8fHq+PXv49BRzFj8ZaB/16Ck+1vmmz0xfFb++Kul9YsODXtKjh694eXpLR7eO0qxJU6lapYoCy88Vf5K6depKRESEfKZ2UtBA6dbNU1xd24tL6zZKxjg7OYs5S4IMWkmrlq2kleObk/ecTq0KrP+4V6uWTuLU0knvbcZFSRgXhfuMjAeHZg6qrVSpVFkqlP9RalavIU0aNZaY6Bj5bNmyVImOHi4DBgSIt6e3uLu5CzUsqQrVprWLtDVnsZZBG+fW0hoQacnpJM5OrcSllbPweUH1Hfd0dGguLRwc9DdcnJ0L7N4F9YzmPkU7V8EGxl3L5i2keTMHcWjaVPGik3sniY+Ll/8H4KmrZKnLyIIAAAAASUVORK5CYII=;" vertex="1" parent="1">
          <mxGeometry x="200" y="303.12" width="133" height="93.77" as="geometry" />
        </mxCell>
        <mxCell id="p7L7XSijqibg-nMQ3p3t-31" value="BFDM突发话题类别抽取模块" style="text;html=1;strokeColor=none;fillColor=none;align=center;verticalAlign=middle;whiteSpace=wrap;rounded=0;" vertex="1" parent="1">
          <mxGeometry x="46.5" y="287" width="105" height="30" as="geometry" />
        </mxCell>
        <mxCell id="p7L7XSijqibg-nMQ3p3t-38" value="" style="edgeStyle=orthogonalEdgeStyle;rounded=0;orthogonalLoop=1;jettySize=auto;html=1;" edge="1" parent="1" source="p7L7XSijqibg-nMQ3p3t-33" target="p7L7XSijqibg-nMQ3p3t-37">
          <mxGeometry relative="1" as="geometry" />
        </mxCell>
        <mxCell id="p7L7XSijqibg-nMQ3p3t-33" value="" style="whiteSpace=wrap;html=1;" vertex="1" parent="1">
          <mxGeometry x="370" y="280" width="130" height="140" as="geometry" />
        </mxCell>
        <mxCell id="p7L7XSijqibg-nMQ3p3t-34" value="Bi-SDGCN情感分析模型" style="text;html=1;strokeColor=none;fillColor=none;align=center;verticalAlign=middle;whiteSpace=wrap;rounded=0;" vertex="1" parent="1">
          <mxGeometry x="382.5" y="287" width="105" height="30" as="geometry" />
        </mxCell>
        <mxCell id="p7L7XSijqibg-nMQ3p3t-35" value="双向语义依存树" style="rounded=1;whiteSpace=wrap;html=1;" vertex="1" parent="1">
          <mxGeometry x="390" y="320" width="90" height="40" as="geometry" />
        </mxCell>
        <mxCell id="p7L7XSijqibg-nMQ3p3t-36" value="图卷积神经网络" style="rounded=1;whiteSpace=wrap;html=1;" vertex="1" parent="1">
          <mxGeometry x="390" y="370" width="90" height="40" as="geometry" />
        </mxCell>
        <mxCell id="p7L7XSijqibg-nMQ3p3t-40" style="edgeStyle=orthogonalEdgeStyle;rounded=0;orthogonalLoop=1;jettySize=auto;html=1;entryX=0;entryY=0.5;entryDx=0;entryDy=0;" edge="1" parent="1" source="p7L7XSijqibg-nMQ3p3t-37" target="p7L7XSijqibg-nMQ3p3t-39">
          <mxGeometry relative="1" as="geometry" />
        </mxCell>
        <mxCell id="p7L7XSijqibg-nMQ3p3t-37" value="舆情可视化模块" style="whiteSpace=wrap;html=1;" vertex="1" parent="1">
          <mxGeometry x="530" y="320" width="120" height="60" as="geometry" />
        </mxCell>
        <mxCell id="p7L7XSijqibg-nMQ3p3t-39" value="结束" style="shape=process;whiteSpace=wrap;html=1;backgroundOutline=1;" vertex="1" parent="1">
          <mxGeometry x="697.5" y="320" width="120" height="60" as="geometry" />
        </mxCell>
      </root>
    </mxGraphModel>
  </diagram>
</mxfile>
